<svg width="29" height="24" viewBox="0 0 29 24" fill="none" xmlns="http://www.w3.org/2000/svg">
<path d="M9.36066 12.0458C9.12378 11.6017 8.65002 11.3352 8.14665 11.3352H6.57732C6.96225 7.04173 10.5451 3.6662 14.9273 3.6662C16.3486 3.6662 17.7403 4.02152 18.9839 4.73216C19.6353 5.11708 20.4644 4.88021 20.8493 4.19918C21.2342 3.54776 20.9974 2.71868 20.3163 2.33375C18.6878 1.41584 16.8224 0.912476 14.9273 0.912476C9.03495 0.912476 4.23814 5.53162 3.88282 11.3056H2.22466C1.7213 11.3056 1.24754 11.572 1.01066 12.0162C0.773778 12.4603 0.803388 12.9933 1.06988 13.4079L4.03087 17.9678C4.29736 18.3527 4.7119 18.5896 5.18566 18.5896C5.65942 18.5896 6.07395 18.3527 6.34044 17.9678L9.30144 13.4079C9.59754 13.0229 9.59754 12.4603 9.36066 12.0458Z" fill="#26C296"/>
<path d="M28.7889 10.5952L25.8279 6.03528C25.3246 5.26542 24.0513 5.26542 23.548 6.03528L20.5574 10.5952C20.2909 11.0097 20.2613 11.5427 20.4982 11.9869C20.735 12.431 21.2088 12.6975 21.7122 12.6975H23.2815C22.8966 16.991 19.3138 20.3665 14.9315 20.3665C13.5398 20.3665 12.1185 20.0112 10.8749 19.3005C10.2235 18.9452 9.39443 19.1821 9.0095 19.8335C8.65418 20.4849 8.89106 21.314 9.54248 21.6989C11.2006 22.6168 13.0364 23.0906 14.9315 23.0906C20.8239 23.0906 25.6207 18.4714 26.0056 12.6975H27.6341C28.1375 12.6975 28.6113 12.431 28.8481 11.9869C29.0554 11.5427 29.0554 11.0097 28.7889 10.5952Z" fill="#26C296"/>
</svg>
